/* XPM */
static char *othello_icon[] = {
/* columns rows colors chars-per-pixel */
"48 48 100 2 ",
"   c #000100",
".  c #000500",
"X  c #000A00",
"o  c #000E00",
"O  c #001100",
"+  c #001600",
"@  c #001F00",
"#  c #002000",
"$  c #002F00",
"%  c #003000",
"&  c #003500",
"*  c #003800",
"=  c #003D00",
"-  c #004200",
";  c #004700",
":  c #004800",
">  c #004D00",
",  c #005200",
"<  c #005700",
"1  c #015B00",
"2  c #005E00",
"3  c #085108",
"4  c #095109",
"5  c #085908",
"6  c #0E5A0E",
"7  c #016100",
"8  c #006400",
"9  c #076607",
"0  c #006B00",
"q  c #006E00",
"w  c #056C05",
"e  c #096709",
"r  c #0E640E",
"t  c #0A680A",
"y  c #0A6E0A",
"u  c #0E6A0E",
"i  c #007300",
"p  c #007500",
"a  c #067406",
"s  c #007A00",
"d  c #017C00",
"f  c #176817",
"g  c #1D6B1D",
"h  c #1D6C1D",
"j  c #1B7E1B",
"k  c #204C20",
"l  c #334A33",
"z  c #3A603A",
"x  c #444844",
"c  c #484848",
"v  c #436143",
"b  c #606360",
"n  c #636363",
"m  c #008100",
"M  c #008400",
"N  c #0D830D",
"B  c #0E830E",
"V  c #219021",
"C  c #2C922C",
"Z  c #319731",
"A  c #4A8E4A",
"S  c #4E914E",
"D  c #549B54",
"F  c #569B56",
"G  c #5C975C",
"H  c #609A60",
"J  c #72B472",
"K  c #73B573",
"L  c #73BC73",
"P  c #77BE77",
"I  c #85B385",
"U  c #8DC88D",
"Y  c #91CA91",
"T  c #9CCD9C",
"R  c #A3CEA3",
"E  c #A4CEA4",
"W  c #ACC0AC",
"Q  c #B0C1B0",
"!  c #B8C5B8",
"~  c #BAC6BA",
"^  c #BCCEBC",
"/  c #BECFBE",
"(  c #B0D7B0",
")  c #B8DDB8",
"_  c #CFD1CF",
"`  c #D4DAD4",
"'  c #CEE7CE",
"]  c #D5E7D5",
"[  c #D7E8D7",
"{  c #E1E1E1",
"}  c #EBF2EB",
"|  c #EEF7EE",
" . c #EFF9EF",
".. c #F0F9F0",
"X. c #F6FBF6",
"o. c #F6FCF6",
"O. c #F9FAF9",
"+. c #FBFBFB",
"@. c #FAFCFA",
"#. c #FFFFFF",
/* pixels */
"d d d m d d m d d m m 2 q d d d m d d m d m s < d d m d m m d m d m 0 7 m d d d m d d m d m d d ",
"d m m d m m m m m d m 2 i m m m m m m m m d d < d m d m m d d m m m 0 7 m m m m m m m m m d m d ",
"d m d m d m m m m m m 1 i m m m m m d m m m s < m m m m m m m m m m 0 8 m m m m m m d m m m m m ",
"m m m m m m m d m d m 2 i d m d m d m m m d s < d m d m d m d m d m 0 7 m m m d m d m m m d m d ",
"d d m d m m m d m m m 2 q m m m d m m d m m s < d m m m m d m m m m 0 7 m m m m d m m d m m m d ",
"d m m m d m m m m d m 2 i m m d m m m m d m s < d m d m m m d m m m 0 7 m d m d m m m m d m m d ",
"m m m m m d m d m m m 1 q m m m d d m d m d d < m m m d m m m m m m 0 8 m m m m d d m d m d m d ",
"d m d m m m m m d m m 2 i m m d m m m m m m d < d m m m d m d m d m 0 7 m m m d m m m m m m m d ",
"d m m d d m m m m m m 2 q m d m m m m m m m s < d m m d m d m m m m 0 7 m m m m m m m m d m m d ",
"d m m m m m m d m d m 2 i m m m m d m d m d s < d m m d m m d m m m 0 7 m m m d m d m d m m m d ",
"d m m d m m d m m m m 2 i m d m d m m m d m s < m m m m m m m m m m 0 7 m m m m d m m m m m m d ",
"m M m m m m m m m m m 2 i M m m m m m m m m d 1 m m m m m m m m m m 0 8 m m m m m m m m m m m m ",
"7 7 7 7 7 8 7 7 7 8 8 : < 8 7 9 u u u t 7 7 7 - 7 8 8 2 2 2 1 7 8 8 , > 8 7 8 7 8 7 7 8 7 8 8 7 ",
"0 0 0 0 0 0 0 0 0 0 0 > 2 w A W _ _ _ ! G y 8 ; 0 7 & X       + : 0 1 , 0 0 0 0 0 0 0 0 0 0 0 8 ",
"d m m m m m m m m m m 2 a L | #.#.#.#.#.X.U N < p %             o , 0 8 M m m m m m m m m m m m ",
"d m m m d m m m d m m 2 D ..#.#.#.#.#.#.#.O.J < *                 o : 8 m m m d m m m d d m m d ",
"d m m m m m m m m m m r ^ #.#.#.#.#.#.#.#.#.] k X                   + 2 m m m m d d m m m d m d ",
"d d m d m d m d m d m g { #.#.#.#.#.#.#.#.#.O.x                       2 m m m d m m d m m m m d ",
"d m m m d m m m d m m g { #.#.#.#.#.#.#.#.#.O.c                       2 m m s m m m m m m d m d ",
"d m m d m m m d d m m h { #.#.#.#.#.#.#.#.#.O.c                       2 m m m m d m d m m m m d ",
"m m d m m m m m m d m f ` #.#.#.#.#.#.#.#.#.} l                     X 2 m d m d m m m d m m m d ",
"d m m m d m d m m m m 2 I #.#.#.#.#.#.#.#.#.R 3 @                   % 8 m m m m d m m m d m m d ",
"d m d m m m m m d m m 2 j ) #.#.#.#.#.#.#.' C < 2 O               % 7 8 m m m m m m m m m m m d ",
"d d m d d m d d m m d 2 q V T | #.#.#...( Z s < d 2 @         X & p q 7 m d d d d m d d d m d d ",
"< < < < < < < < < < < = : < 5 z b n b v 6 < , * < < 3 l c c x k 1 < ; - 1 < < < < < < < < < < < ",
"s d s s s s s s s s d 1 q p * X       . $ 0 s , s C E } O.+.O.[ J N 7 2 s s d s s d s d s s s s ",
"d m d m m m d m m m m 2 8 $               # q < Z ' #.#.#.#.#.#.@.Y y 7 m m m m d m m d d m m d ",
"d m m m m d m m m d m 2 & .                 $ 6 ( #.#.#.#.#.#.#.#.o.H 7 m m d m m m m m d m m d ",
"d m m m d m d m m d m < X                   . v ..#.#.#.#.#.#.#.#.#.! 9 m m m m d m d m d m m d ",
"d m d m m m m m m m M >                       b #.#.#.#.#.#.#.#.#.#._ f m d m d m m m m m m m d ",
"d m m d m m d m m d m >                       b #.#.#.#.#.#.#.#.#.#._ u m m m m m m d m d m m d ",
"d m m d m d m m m m M >                       b #.#.#.#.#.#.#.#.#.#._ u m m m d m d m m m m m d ",
"d m d m d m m m m m m < o                   o z | #.#.#.#.#.#.#.#.#.Q 9 m m m m m m m m m m m d ",
"m m m m m m m d m d m 2 = .                 * 5 T #.#.#.#.#.#.#.#. .S 7 m d m d m d d m d m m d ",
"d d m m d m m m m d m 2 q = .             % p < V ) #.#.#.#.#.#...P w 8 m m m d m m m m m m m d ",
"i i i q i q i q i i i , 7 q = o       X & 8 q : q j I ` { { { ^ D a 1 1 i i i i i q i q q i i q ",
"1 2 2 2 2 2 2 2 2 2 2 - , 2 2 < > , > < 2 2 1 = 2 1 2 f g g h r 2 2 > ; 2 2 2 2 2 2 2 2 2 2 2 1 ",
"d m m m m m m m m m m 2 i m m m m m m m m m s < m m m m m m d m m m q 7 m m m m m m m m m m m d ",
"d m m m d m d m m d m 2 i m m d m m m m d m s < d m m m d m d m m m 0 7 m m m m d m d m d m m d ",
"d m m d m m m m m m m 2 q m m m m d m d m m s < d m d m m m m m m m 0 7 m m m d m m m m m m m d ",
"d d m d m d m d m d m 2 q m m m m m d m d m s < m d m d m d m d m m 0 8 m m d m d m m d m d m d ",
"d m m m m m m m m m m 2 i d m d m d m m m m s < d m m m m m m m d m 0 7 m m m m m m m m m m m d ",
"m m m m m d m m m m m 2 i m m m m m m m d m s < m m m m m d m m m m 0 7 m m d m d m d d m m m d ",
"d m d m m m d m d m m 2 i m m d m d m d m m d < m d d m m m d m m m 0 8 m d m m m m m m m m m d ",
"d m m d m m m m m d m 2 q m m m m m m m m m s < d d m m d m m m m m 0 8 m m m m m m m m d d m d ",
"d m m m d m d m m m m 2 i d m d d m d m m d s < m m m d m m m d d m 0 7 m m m d m d m d m m m d ",
"d m m d m m m m m d m 2 i m m m m m m m d m d < m m m m m m m m m m 0 7 m m m m d m m m m m m d ",
"d m d d d d d m d d d 2 q d d d d d d m d d p < d d d d d d d d d d 0 7 d m d d d d m d d d d d "
};
